<svg width="30" height="30" viewBox="0 0 30 30" fill="none" xmlns="http://www.w3.org/2000/svg">
<path d="M23.1301 27.1586C21.6465 28.5967 20.0268 28.3696 18.4676 27.6884C16.8175 26.992 15.3037 26.9618 13.5628 27.6884C11.3829 28.6269 10.2325 28.3545 8.93058 27.1586C1.54321 19.5441 2.63315 7.94837 11.0196 7.5245C13.0633 7.63047 14.4862 8.64472 15.6822 8.73554C17.4684 8.37223 19.179 7.32771 21.0864 7.46395C23.3723 7.64561 25.098 8.55389 26.2334 10.1888C21.5103 13.0196 22.6305 19.2414 26.96 20.9822C26.0971 23.2529 24.9769 25.5085 23.1149 27.1737L23.1301 27.1586ZM15.5308 7.43367C15.3037 4.05789 18.0437 1.27248 21.1924 1C21.6314 4.90562 17.6501 7.81212 15.5308 7.43367Z" fill="white"/>
</svg>
