<svg width="48" height="48" viewBox="0 0 48 48" fill="none" xmlns="http://www.w3.org/2000/svg">
<path d="M0 24C0 10.7452 10.7452 0 24 0C37.2548 0 48 10.7452 48 24C48 37.2548 37.2548 48 24 48C10.7452 48 0 37.2548 0 24Z" fill="#00A8FF" fill-opacity="0.2"/>
<path d="M14.9917 28.3419C15.1387 28.7129 15.1715 29.1193 15.0857 29.5089L14.0207 32.7989C13.9864 32.9658 13.9952 33.1386 14.0465 33.3011C14.0977 33.4635 14.1896 33.6102 14.3134 33.7272C14.4372 33.8442 14.5888 33.9276 14.7539 33.9696C14.919 34.0115 15.0921 34.0106 15.2567 33.9669L18.6697 32.9689C19.0374 32.896 19.4182 32.9279 19.7687 33.0609C21.9041 34.0582 24.3231 34.2691 26.5988 33.6567C28.8746 33.0442 30.861 31.6476 32.2074 29.7133C33.5538 27.779 34.1738 25.4313 33.958 23.0845C33.7422 20.7376 32.7044 18.5424 31.0278 16.8861C29.3511 15.2299 27.1434 14.219 24.7941 14.0318C22.4448 13.8447 20.1048 14.4933 18.1871 15.8633C16.2694 17.2332 14.8972 19.2365 14.3126 21.5196C13.7279 23.8027 13.9685 26.2189 14.9917 28.3419Z" stroke="#00A8FF" stroke-width="2" stroke-linecap="round" stroke-linejoin="round"/>
</svg>
