<svg width="20" height="20" viewBox="0 0 20 20" fill="none" xmlns="http://www.w3.org/2000/svg">
<g clip-path="url(#clip0_10_1790)">
<path d="M17.8679 8.19602C18.2422 10.0329 17.9754 11.9426 17.1121 13.6066C16.2488 15.2706 14.8411 16.5884 13.1238 17.3402C11.4065 18.0919 9.48342 18.2322 7.6752 17.7377C5.86697 17.2431 4.28293 16.1437 3.18724 14.6226C2.09156 13.1015 1.55045 11.2507 1.65416 9.37897C1.75787 7.50721 2.50013 5.72757 3.75715 4.33684C5.01417 2.9461 6.70998 2.02834 8.56177 1.73659C10.4136 1.44485 12.3094 1.79675 13.9331 2.73363" stroke="#009CFF" stroke-width="2.45869" stroke-linecap="round" stroke-linejoin="round"/>
<path d="M7.37598 9.01429L9.83467 11.473L18.0303 3.27734" stroke="#009CFF" stroke-width="2.45869" stroke-linecap="round" stroke-linejoin="round"/>
</g>
<defs>
<clipPath id="clip0_10_1790">
<rect width="19.6695" height="19.6695" fill="white"/>
</clipPath>
</defs>
</svg>
