<svg width="56" height="56" viewBox="0 0 56 56" fill="none" xmlns="http://www.w3.org/2000/svg">
<g filter="url(#filter0_d_805_6462)">
<path d="M2.53906 11.4265C2.53906 5.81696 7.08651 1.26953 12.6961 1.26953H43.1671C48.7766 1.26953 53.324 5.81697 53.324 11.4265V41.8975C53.324 47.5071 48.7766 52.0545 43.167 52.0545H12.696C7.08649 52.0545 2.53906 47.5071 2.53906 41.8975V11.4265Z" fill="#111111"/>
<path d="M28.4328 38.4364C28.2248 38.4364 28.0507 38.3668 27.9107 38.2278C27.7707 38.0888 27.7012 37.9153 27.7022 37.7072C27.7032 37.4991 27.7727 37.3256 27.9107 37.1866C28.0488 37.0475 28.2223 36.978 28.4314 36.978H37.3505C37.5936 36.978 37.8036 36.9032 37.9805 36.7534C38.1584 36.6037 38.2474 36.4073 38.2474 36.1643V26.1193C38.2474 23.3873 37.2431 21.106 35.2345 19.2753C33.2249 17.4437 30.8264 16.5278 28.0391 16.5278C25.2517 16.5278 22.8532 17.4437 20.8436 19.2753C18.835 21.106 17.8307 23.3873 17.8307 26.1193V33.6691C17.8307 33.8762 17.7612 34.0492 17.6222 34.1882C17.4832 34.3273 17.3096 34.3973 17.1016 34.3982C16.5056 34.3982 15.9918 34.1965 15.5601 33.793C15.1294 33.3905 14.9141 32.8918 14.9141 32.2968V29.5478C14.9141 29.1123 15.0555 28.7258 15.3384 28.3884C15.6223 28.0501 15.967 27.7755 16.3724 27.5645L16.3972 25.7722C16.4234 24.2507 16.754 22.8409 17.3889 21.543C18.0237 20.2451 18.8715 19.1159 19.9322 18.1553C20.9929 17.1948 22.2198 16.4462 23.613 15.9095C25.0062 15.3728 26.4816 15.104 28.0391 15.103C29.5966 15.1021 31.0709 15.3704 32.4622 15.908C33.8534 16.4457 35.075 17.1933 36.127 18.1509C37.1789 19.1086 38.0223 20.2364 38.6572 21.5343C39.292 22.8322 39.6333 24.2419 39.6809 25.7634L39.7057 27.5178C40.0927 27.6996 40.4325 27.9441 40.7251 28.2514C41.0177 28.5576 41.1641 28.9256 41.1641 29.3553V32.5141C41.1641 32.9438 41.0177 33.3118 40.7251 33.618C40.4325 33.9243 40.0927 34.1683 39.7057 34.3501V36.1643C39.7057 36.7982 39.4763 37.3353 39.0174 37.7757C38.5585 38.2162 38.0029 38.4364 37.3505 38.4364H28.4328ZM24.2255 29.0126C23.9241 29.0126 23.6616 28.9105 23.438 28.7064C23.2144 28.5022 23.1026 28.2494 23.1026 27.948C23.1026 27.6466 23.2144 27.389 23.438 27.1751C23.6616 26.9612 23.9241 26.8543 24.2255 26.8543C24.5269 26.8543 24.7889 26.9612 25.0116 27.1751C25.2342 27.389 25.346 27.6466 25.347 27.948C25.348 28.2494 25.2361 28.5022 25.0116 28.7064C24.787 28.9105 24.5245 29.0126 24.2241 29.0126M31.8541 29.0126C31.5527 29.0126 31.2902 28.9105 31.0666 28.7064C30.843 28.5022 30.7311 28.2494 30.7311 27.948C30.7311 27.6466 30.843 27.389 31.0666 27.1751C31.2902 26.9612 31.5527 26.8543 31.8541 26.8543C32.1555 26.8543 32.4175 26.9612 32.6401 27.1751C32.8627 27.389 32.9746 27.6466 32.9755 27.948C32.9765 28.2494 32.8647 28.5022 32.6401 28.7064C32.4155 28.9105 32.153 29.0126 31.8526 29.0126M20.3361 26.6968C20.2039 24.5132 20.9073 22.6519 22.4464 21.1128C23.9844 19.5738 25.8734 18.8043 28.1134 18.8043C29.9957 18.8043 31.664 19.3696 33.1184 20.5003C34.5729 21.631 35.4605 23.1161 35.7814 24.9555C33.8495 24.9312 32.0568 24.4383 30.403 23.4768C28.7493 22.5153 27.4805 21.1784 26.5968 19.4664C26.2448 21.1493 25.5132 22.6241 24.402 23.8909C23.2898 25.1578 21.9345 26.093 20.3361 26.6968Z" fill="white"/>
</g>
<defs>
<filter id="filter0_d_805_6462" x="-0.00018692" y="-9.34601e-05" width="55.8637" height="55.8637" filterUnits="userSpaceOnUse" color-interpolation-filters="sRGB">
<feFlood flood-opacity="0" result="BackgroundImageFix"/>
<feColorMatrix in="SourceAlpha" type="matrix" values="0 0 0 0 0 0 0 0 0 0 0 0 0 0 0 0 0 0 127 0" result="hardAlpha"/>
<feOffset dy="1.26962"/>
<feGaussianBlur stdDeviation="1.26962"/>
<feColorMatrix type="matrix" values="0 0 0 0 0 0 0 0 0 0 0 0 0 0 0 0 0 0 0.05 0"/>
<feBlend mode="normal" in2="BackgroundImageFix" result="effect1_dropShadow_805_6462"/>
<feBlend mode="normal" in="SourceGraphic" in2="effect1_dropShadow_805_6462" result="shape"/>
</filter>
</defs>
</svg>
