<svg width="17" height="17" viewBox="0 0 17 17" fill="none" xmlns="http://www.w3.org/2000/svg">
<g clip-path="url(#clip0_206_2602)">
<path d="M16.4678 8.54925C16.4673 4.14959 12.9007 0.583008 8.50051 0.583008C4.10032 0.583008 0.533203 4.15013 0.533203 8.55032C0.533203 12.5111 3.42345 15.7967 7.20946 16.4135L7.25515 16.4199V10.853H5.23198V8.54925H7.25515V6.79492C7.24506 6.70619 7.23975 6.60312 7.23975 6.49898C7.23975 4.94601 8.49892 3.68684 10.0519 3.68684C10.1268 3.68684 10.2012 3.69002 10.275 3.69534L10.2655 3.69481C10.9025 3.70384 11.5188 3.76016 12.1202 3.86057L12.049 3.85048V5.81096H11.0438C10.9981 5.80458 10.9455 5.80086 10.8924 5.80086C10.2564 5.80086 9.74055 6.31622 9.74055 6.95271C9.74055 6.98884 9.74215 7.02444 9.74534 7.06003L9.7448 7.05525V8.54925H11.9545L11.6012 10.853H9.7448V16.4199C13.577 15.7961 16.4673 12.5101 16.4678 8.54925Z" fill="white"/>
</g>
<defs>
<clipPath id="clip0_206_2602">
<rect width="17.0015" height="17.0015" fill="white"/>
</clipPath>
</defs>
</svg>
