<svg width="24" height="24" viewBox="0 0 24 24" fill="none" xmlns="http://www.w3.org/2000/svg">
<path d="M21.41 8.63817V8.58817C20.7053 6.6644 19.4269 5.00346 17.7474 3.83004C16.068 2.65662 14.0687 2.02734 12.02 2.02734C9.9712 2.02734 7.97189 2.65662 6.29246 3.83004C4.61304 5.00346 3.33455 6.6644 2.62995 8.58817C2.62995 8.58817 2.62995 8.58817 2.62995 8.63817C1.84308 10.8091 1.84308 13.1873 2.62995 15.3582V15.4082C3.33455 17.3319 4.61304 18.9929 6.29246 20.1663C7.97189 21.3397 9.9712 21.969 12.02 21.969C14.0687 21.969 16.068 21.3397 17.7474 20.1663C19.4269 18.9929 20.7053 17.3319 21.41 15.4082C21.41 15.4082 21.41 15.4082 21.41 15.3582C22.1968 13.1873 22.1968 10.8091 21.41 8.63817ZM4.25995 13.9982C3.91226 12.6875 3.91226 11.3088 4.25995 9.99817H6.11995C5.95969 11.3267 5.95969 12.6697 6.11995 13.9982H4.25995ZM5.07995 15.9982H6.47995C6.71342 16.8904 7.04896 17.7528 7.47995 18.5682C6.49925 17.9001 5.67945 17.0222 5.07995 15.9982ZM6.47995 7.99817H5.07995C5.67082 6.97726 6.48014 6.09964 7.44995 5.42817C7.02931 6.24488 6.70384 7.1072 6.47995 7.99817ZM11 19.6982C9.77172 18.7969 8.9091 17.4834 8.56995 15.9982H11V19.6982ZM11 13.9982H8.13995C7.95386 12.6713 7.95386 11.325 8.13995 9.99817H11V13.9982ZM11 7.99817H8.56995C8.9091 6.51294 9.77172 5.19949 11 4.29817V7.99817ZM18.92 7.99817H17.52C17.2865 7.10592 16.9509 6.24356 16.52 5.42817C17.5007 6.09624 18.3205 6.97411 18.92 7.99817ZM13 4.29817C14.2282 5.19949 15.0908 6.51294 15.43 7.99817H13V4.29817ZM13 19.6982V15.9982H15.43C15.0908 17.4834 14.2282 18.7969 13 19.6982ZM15.86 13.9982H13V9.99817H15.86C16.046 11.325 16.046 12.6713 15.86 13.9982ZM16.55 18.5682C16.9809 17.7528 17.3165 16.8904 17.55 15.9982H18.95C18.3505 17.0222 17.5307 17.9001 16.55 18.5682ZM19.74 13.9982H17.88C17.9617 13.3347 18.0018 12.6667 18 11.9982C18.0018 11.3297 17.9617 10.6617 17.88 9.99817H19.74C20.0876 11.3088 20.0876 12.6875 19.74 13.9982Z" fill="#F5F5F5"/>
</svg>
