<svg width="23" height="23" viewBox="0 0 23 23" fill="none" xmlns="http://www.w3.org/2000/svg">
<path d="M1.197 6.19875C2.13342 4.33523 3.56943 2.76869 5.34465 1.67407C7.11987 0.579457 9.16443 -0.000142298 11.25 2.62051e-08C14.2819 2.62051e-08 16.8289 1.11488 18.7763 2.93063L15.5509 6.15713C14.3843 5.04225 12.9015 4.47413 11.25 4.47413C8.31938 4.47413 5.83875 6.45413 4.95563 9.1125C4.73063 9.7875 4.60238 10.5075 4.60238 11.25C4.60238 11.9925 4.73063 12.7125 4.95563 13.3875C5.83988 16.047 8.31938 18.0259 11.25 18.0259C12.7631 18.0259 14.0513 17.6265 15.0593 16.9515C15.6436 16.5668 16.1439 16.0675 16.5299 15.4839C16.9158 14.9004 17.1794 14.2446 17.3048 13.5563H11.25V9.20475H21.8453C21.978 9.9405 22.05 10.7078 22.05 11.5054C22.05 14.9321 20.8238 17.8166 18.6953 19.7741C16.8345 21.4931 14.2875 22.5 11.25 22.5C9.77246 22.5006 8.30929 22.21 6.94411 21.6449C5.57893 21.0797 4.33851 20.251 3.29373 19.2063C2.24895 18.1615 1.42031 16.9211 0.855152 15.5559C0.289996 14.1907 -0.000590469 12.7275 9.00804e-07 11.25C9.00804e-07 9.43425 0.434251 7.7175 1.197 6.19875Z" fill="white"/>
</svg>
