<svg width="16" height="16" viewBox="0 0 16 16" fill="none" xmlns="http://www.w3.org/2000/svg">
<rect x="0.5" y="0.5" width="15" height="15" rx="7.5" stroke="#137138"/>
<path fill-rule="evenodd" clip-rule="evenodd" d="M12.4794 5.1907C12.6014 5.31271 12.6699 5.47816 12.6699 5.65068C12.6699 5.82319 12.6014 5.98864 12.4794 6.11065L7.60298 10.9871C7.53854 11.0516 7.46203 11.1027 7.37782 11.1376C7.29362 11.1725 7.20336 11.1904 7.11222 11.1904C7.02107 11.1904 6.93081 11.1725 6.84661 11.1376C6.7624 11.1027 6.68589 11.0516 6.62145 10.9871L4.19862 8.56471C4.13648 8.50469 4.08692 8.4329 4.05282 8.35353C4.01872 8.27415 4.00078 8.18878 4.00002 8.10239C3.99927 8.01601 4.01574 7.93034 4.04845 7.85038C4.08116 7.77042 4.12947 7.69778 4.19056 7.6367C4.25164 7.57561 4.32428 7.5273 4.40424 7.49459C4.4842 7.46188 4.56987 7.44542 4.65625 7.44617C4.74264 7.44692 4.82801 7.46486 4.90738 7.49896C4.98676 7.53306 5.05855 7.58262 5.11857 7.64476L7.112 9.6382L11.5591 5.1907C11.6195 5.13025 11.6912 5.08229 11.7702 5.04956C11.8491 5.01684 11.9338 5 12.0192 5C12.1047 5 12.1894 5.01684 12.2683 5.04956C12.3473 5.08229 12.419 5.13025 12.4794 5.1907Z" fill="#137138"/>
</svg>
