<svg width="61" height="61" viewBox="0 0 61 61" fill="none" xmlns="http://www.w3.org/2000/svg">
<path d="M0 30.471C0 13.6423 13.6423 0 30.471 0C47.2997 0 60.942 13.6423 60.942 30.471C60.942 47.2997 47.2997 60.942 30.471 60.942C13.6423 60.942 0 47.2997 0 30.471Z" fill="white"/>
<path d="M30.4697 43.1679C37.4816 43.1679 43.1659 37.4836 43.1659 30.4716C43.1659 23.4597 37.4816 17.7754 30.4697 17.7754C23.4577 17.7754 17.7734 23.4597 17.7734 30.4716C17.7734 37.4836 23.4577 43.1679 30.4697 43.1679Z" stroke="#009CFF" stroke-width="2.53925" stroke-linecap="round" stroke-linejoin="round"/>
<path d="M26.7773 26.6621C27.0758 25.8136 27.665 25.0981 28.4405 24.6423C29.216 24.1866 30.1278 24.02 31.0143 24.172C31.9009 24.3241 32.705 24.785 33.2843 25.4732C33.8635 26.1613 34.1806 27.0322 34.1793 27.9317C34.1793 30.471 30.3704 31.7406 30.3704 31.7406" stroke="#009CFF" stroke-width="2.53925" stroke-linecap="round" stroke-linejoin="round"/>
<path d="M30.4727 36.8184H30.4849" stroke="#009CFF" stroke-width="2.53925" stroke-linecap="round" stroke-linejoin="round"/>
</svg>
