<svg width="16" height="16" viewBox="0 0 16 16" fill="none" xmlns="http://www.w3.org/2000/svg">
<path d="M13.1767 3.71482V3.71535C13.1767 4.24346 12.7484 4.67115 12.2209 4.67115C11.6933 4.67115 11.2651 4.24293 11.2651 3.71535C11.2651 3.18724 11.6933 2.75955 12.2209 2.75955C12.7484 2.76008 13.1761 3.18724 13.1767 3.71482ZM7.96731 10.6233C6.5004 10.6233 5.31136 9.43421 5.31136 7.96731C5.31136 6.5004 6.5004 5.31136 7.96731 5.31136C9.43421 5.31136 10.6233 6.5004 10.6233 7.96731C10.6233 9.43368 9.43475 10.6227 7.96837 10.6227H7.96784L7.96731 10.6233ZM7.96731 3.87633C5.70771 3.87633 3.87633 5.70824 3.87633 7.96731C3.87633 10.2264 5.70824 12.0583 7.96731 12.0583C10.2269 12.0583 12.0583 10.2264 12.0583 7.96731C12.0583 7.96731 12.0583 7.96731 12.0583 7.96678C12.0583 5.70771 10.2269 3.8758 7.96731 3.8758C7.96731 3.8758 7.96731 3.8758 7.96678 3.8758L7.96731 3.87633ZM7.96731 1.4345C10.0941 1.4345 10.3475 1.44512 11.1875 1.48178C11.7204 1.48816 12.2272 1.5891 12.6964 1.76762L12.6661 1.75753C13.3642 2.02955 13.9061 2.57147 14.1723 3.25153L14.1787 3.26959C14.3466 3.70844 14.4465 4.21583 14.4528 4.74553V4.74819C14.4906 5.5887 14.4991 5.84106 14.4991 7.96837C14.4991 10.0957 14.489 10.3486 14.4502 11.1886C14.4401 11.722 14.3386 12.2288 14.1606 12.698L14.1707 12.6671C14.0336 13.0263 13.8307 13.3323 13.5741 13.5842L13.5735 13.5847C13.3222 13.8418 13.0162 14.0448 12.6746 14.1739L12.6576 14.1797C12.2171 14.3476 11.7082 14.4475 11.1763 14.4539H11.1737C10.3279 14.4916 10.0787 14.5001 7.94765 14.5001C5.81556 14.5001 5.56691 14.49 4.72162 14.4512C4.18608 14.4411 3.6771 14.3397 3.20584 14.1617L3.23718 14.1718C2.87803 14.0368 2.572 13.8333 2.32229 13.5757L2.32176 13.5751C2.06196 13.3254 1.85794 13.0189 1.7299 12.6756L1.72459 12.6592C1.55723 12.2193 1.45575 11.7108 1.44565 11.1795V11.1753C1.4159 10.3385 1.40528 10.0803 1.40528 7.95934C1.40528 5.83734 1.4159 5.5786 1.44565 4.73172C1.45575 4.1967 1.5567 3.68825 1.73468 3.21753L1.72459 3.24887C1.85582 2.88812 2.06036 2.58103 2.32123 2.33292L2.32229 2.33186C2.57094 2.07046 2.8775 1.86697 3.22124 1.74106L3.23771 1.73574C3.67497 1.56679 4.18023 1.46531 4.70834 1.45628H4.71206C5.55841 1.42653 5.80759 1.41643 7.93809 1.41643L7.96731 1.4345ZM7.96731 0C5.80281 0 5.53291 0.0100946 4.68284 0.0478166C3.98418 0.0626929 3.32166 0.197642 2.70854 0.431943L2.74892 0.418661C2.19638 0.629585 1.72565 0.942518 1.3378 1.33674L1.33727 1.33727C0.941456 1.72512 0.629054 2.19638 0.427162 2.72236L0.41813 2.74892C0.197111 3.32166 0.0621616 3.98472 0.0478166 4.67646V4.68284C0.00796945 5.53291 0 5.80281 0 7.96731C0 10.1318 0.0100946 10.4017 0.0478166 11.2518C0.0626929 11.9504 0.197642 12.613 0.431943 13.2261L0.418661 13.1857C0.841572 14.2594 1.67517 15.093 2.7213 15.5064L2.74892 15.516C3.32166 15.7364 3.98472 15.8714 4.67646 15.8863H4.68284C5.53291 15.9261 5.80281 15.9341 7.96731 15.9341C10.1318 15.9341 10.4017 15.924 11.2518 15.8863C11.9504 15.8709 12.613 15.7364 13.2261 15.5021L13.1857 15.516C14.2594 15.093 15.093 14.2594 15.5064 13.2133L15.516 13.1857C15.737 12.613 15.8714 11.9499 15.8863 11.2582V11.2518C15.9261 10.4017 15.9341 10.1318 15.9341 7.96731C15.9341 5.80281 15.924 5.53291 15.8863 4.68284C15.8709 3.98418 15.7364 3.32166 15.5021 2.70854L15.516 2.74892C15.3045 2.19638 14.9921 1.72565 14.5973 1.3378L14.5968 1.33727C14.209 0.941456 13.7377 0.629054 13.2117 0.427162L13.1852 0.41813C12.6124 0.197111 11.9494 0.0621616 11.2576 0.0478166H11.2512C10.4012 0.00796945 10.1313 0 7.96678 0H7.96731Z" fill="white"/>
</svg>
