<svg width="56" height="56" viewBox="0 0 56 56" fill="none" xmlns="http://www.w3.org/2000/svg">
<g filter="url(#filter0_d_805_6477)">
<path d="M2.53906 11.4265C2.53906 5.81696 7.08651 1.26953 12.6961 1.26953H43.1671C48.7766 1.26953 53.324 5.81697 53.324 11.4265V41.8975C53.324 47.5071 48.7766 52.0545 43.167 52.0545H12.696C7.08649 52.0545 2.53906 47.5071 2.53906 41.8975V11.4265Z" fill="#111111"/>
<path d="M27.9066 36.2572C28.8295 36.1941 29.7448 36.0467 30.6409 35.8168C31.7478 36.1495 32.916 36.2248 34.0564 36.037C34.1019 36.0314 34.1476 36.028 34.1934 36.0268C34.6003 36.0268 35.1341 36.2601 35.9128 36.7516V35.9437C35.9131 35.8029 35.9512 35.6648 36.023 35.5438C36.0948 35.4227 36.1978 35.3231 36.3211 35.2553C36.6605 35.0638 36.974 34.8484 37.2618 34.6093C38.3964 33.6614 39.0366 32.3955 39.0366 31.0568C39.0366 30.6149 38.9666 30.1745 38.828 29.7545C39.1722 29.1216 39.4464 28.4609 39.6505 27.7726C40.3068 28.7424 40.6597 29.8872 40.6641 31.0568C40.6641 32.8768 39.8066 34.5743 38.3205 35.8153C38.0716 36.0224 37.8116 36.213 37.5403 36.387V38.2799C37.5403 38.9303 36.7791 39.3051 36.2424 38.9172C35.7339 38.543 35.2083 38.1927 34.6674 37.8672C34.5111 37.7771 34.3494 37.6967 34.1832 37.6266C33.7318 37.6934 33.2761 37.727 32.8197 37.7272C30.9676 37.7272 29.2555 37.1774 27.9066 36.2572ZM18.1051 32.4728C15.7659 30.5143 14.4141 27.8441 14.4141 24.9828C14.4141 19.1378 20.0024 14.4639 26.8259 14.4639C33.6509 14.4639 39.2407 19.1364 39.2407 24.9828C39.2407 30.8278 33.6509 35.5003 26.8259 35.5003C26.0589 35.5003 25.303 35.442 24.5582 35.3253C24.2374 35.3997 22.9511 36.1537 21.0991 37.488C20.4282 37.9722 19.4774 37.5055 19.4774 36.6903V33.463C18.9971 33.1661 18.5389 32.8347 18.1066 32.4714M24.6034 33.3347C24.6598 33.3347 24.7167 33.3391 24.7741 33.3478C25.4449 33.4587 26.1289 33.5146 26.8259 33.5155C32.5907 33.5155 37.2034 29.6582 37.2034 24.9814C37.2034 20.3059 32.5907 16.4487 26.8274 16.4487C21.0641 16.4487 16.4484 20.3089 16.4484 24.9828C16.4484 27.2432 17.5276 29.3724 19.4322 30.9664C19.9125 31.3669 20.4355 31.7266 21.0014 32.0455C21.1548 32.1307 21.283 32.2551 21.3726 32.406C21.4623 32.5569 21.5103 32.729 21.5118 32.9045V34.7653C22.9774 33.7955 23.9414 33.3347 24.6034 33.3347Z" fill="white"/>
<path d="M21.7969 26.7695C22.232 26.7695 22.6493 26.5967 22.957 26.289C23.2646 25.9813 23.4375 25.564 23.4375 25.1289C23.4375 24.6938 23.2646 24.2765 22.957 23.9688C22.6493 23.6611 22.232 23.4883 21.7969 23.4883C21.3618 23.4883 20.9445 23.6611 20.6368 23.9688C20.3291 24.2765 20.1562 24.6938 20.1562 25.1289C20.1562 25.564 20.3291 25.9813 20.6368 26.289C20.9445 26.5967 21.3618 26.7695 21.7969 26.7695ZM27.13 26.7695C27.5651 26.7695 27.9824 26.5967 28.2901 26.289C28.5978 25.9813 28.7706 25.564 28.7706 25.1289C28.7706 24.6938 28.5978 24.2765 28.2901 23.9688C27.9824 23.6611 27.5651 23.4883 27.13 23.4883C26.6949 23.4883 26.2776 23.6611 25.9699 23.9688C25.6622 24.2765 25.4894 24.6938 25.4894 25.1289C25.4894 25.564 25.6622 25.9813 25.9699 26.289C26.2776 26.5967 26.6949 26.7695 27.13 26.7695ZM32.4617 26.7695C32.8968 26.7695 33.3141 26.5967 33.6218 26.289C33.9294 25.9813 34.1023 25.564 34.1023 25.1289C34.1023 24.6938 33.9294 24.2765 33.6218 23.9688C33.3141 23.6611 32.8968 23.4883 32.4617 23.4883C32.0265 23.4883 31.6092 23.6611 31.3016 23.9688C30.9939 24.2765 30.821 24.6938 30.821 25.1289C30.821 25.564 30.9939 25.9813 31.3016 26.289C31.6092 26.5967 32.0265 26.7695 32.4617 26.7695Z" fill="white"/>
</g>
<defs>
<filter id="filter0_d_805_6477" x="-0.00018692" y="-9.34601e-05" width="55.8637" height="55.8637" filterUnits="userSpaceOnUse" color-interpolation-filters="sRGB">
<feFlood flood-opacity="0" result="BackgroundImageFix"/>
<feColorMatrix in="SourceAlpha" type="matrix" values="0 0 0 0 0 0 0 0 0 0 0 0 0 0 0 0 0 0 127 0" result="hardAlpha"/>
<feOffset dy="1.26962"/>
<feGaussianBlur stdDeviation="1.26962"/>
<feColorMatrix type="matrix" values="0 0 0 0 0 0 0 0 0 0 0 0 0 0 0 0 0 0 0.05 0"/>
<feBlend mode="normal" in2="BackgroundImageFix" result="effect1_dropShadow_805_6477"/>
<feBlend mode="normal" in="SourceGraphic" in2="effect1_dropShadow_805_6477" result="shape"/>
</filter>
</defs>
</svg>
