<svg width="19" height="18" viewBox="0 0 19 18" fill="none" xmlns="http://www.w3.org/2000/svg">
<path d="M18.6484 16.0625L13.4922 11.875C15.6172 8.96875 15.3984 4.8125 12.7422 2.1875C11.3359 0.78125 9.46094 0 7.46094 0C5.46094 0 3.58594 0.78125 2.17969 2.1875C-0.726562 5.09375 -0.726562 9.84375 2.17969 12.75C3.58594 14.1563 5.46094 14.9375 7.46094 14.9375C9.36719 14.9375 11.1484 14.2188 12.5547 12.9375L17.7734 17.1563C17.8984 17.25 18.0547 17.3125 18.2109 17.3125C18.4297 17.3125 18.6172 17.2188 18.7422 17.0625C18.9922 16.75 18.9609 16.3125 18.6484 16.0625ZM7.46094 13.5313C5.83594 13.5313 4.33594 12.9063 3.17969 11.75C0.804688 9.375 0.804688 5.53125 3.17969 3.1875C4.33594 2.03125 5.83594 1.40625 7.46094 1.40625C9.08594 1.40625 10.5859 2.03125 11.7422 3.1875C14.1172 5.5625 14.1172 9.40625 11.7422 11.75C10.6172 12.9063 9.08594 13.5313 7.46094 13.5313Z" fill="#ADB0B2"/>
</svg>
