<svg width="20" height="20" viewBox="0 0 20 20" fill="none" xmlns="http://www.w3.org/2000/svg">
<path d="M12.1145 18.0716C12.1461 18.1505 12.2012 18.2179 12.2722 18.2646C12.3432 18.3113 12.4269 18.3352 12.5118 18.333C12.5968 18.3308 12.6791 18.3027 12.7477 18.2524C12.8162 18.2021 12.8677 18.1321 12.8953 18.0516L18.312 2.2183C18.3386 2.14446 18.3437 2.06455 18.3266 1.98793C18.3096 1.9113 18.271 1.84113 18.2155 1.78561C18.16 1.7301 18.0898 1.69154 18.0132 1.67446C17.9366 1.65737 17.8566 1.66246 17.7828 1.68913L1.94947 7.1058C1.86905 7.13338 1.79899 7.1849 1.7487 7.25344C1.69841 7.32199 1.67028 7.40428 1.66811 7.48926C1.66593 7.57425 1.6898 7.65787 1.73652 7.7289C1.78324 7.79993 1.85057 7.85497 1.92947 7.88663L8.53781 10.5366C8.74671 10.6203 8.93652 10.7453 9.09578 10.9043C9.25504 11.0633 9.38046 11.2529 9.46447 11.4616L12.1145 18.0716Z" stroke="white" stroke-width="1.66667" stroke-linecap="round" stroke-linejoin="round"/>
<path d="M18.2104 1.78906L9.09375 10.9049" stroke="white" stroke-width="1.66667" stroke-linecap="round" stroke-linejoin="round"/>
</svg>
