<svg width="20" height="20" viewBox="0 0 20 20" fill="none" xmlns="http://www.w3.org/2000/svg">
<g clip-path="url(#clip0_10_2740)">
<path d="M9.45327 1.88264C9.48923 1.80998 9.54479 1.74881 9.61367 1.70605C9.68255 1.66329 9.76202 1.64063 9.84309 1.64062C9.92417 1.64062 10.0036 1.66329 10.0725 1.70605C10.1414 1.74881 10.197 1.80998 10.2329 1.88264L12.1287 5.72262C12.2536 5.97537 12.4379 6.19403 12.6659 6.35985C12.8939 6.52566 13.1588 6.63368 13.4377 6.67462L17.6774 7.29506C17.7577 7.3067 17.8332 7.34058 17.8952 7.39288C17.9573 7.44518 18.0035 7.51381 18.0286 7.591C18.0537 7.66819 18.0567 7.75087 18.0373 7.82968C18.0179 7.90849 17.9768 7.98029 17.9186 8.03696L14.8526 11.0226C14.6504 11.2197 14.4991 11.4629 14.4117 11.7314C14.3244 11.9999 14.3036 12.2856 14.3511 12.5639L15.075 16.7822C15.0891 16.8625 15.0805 16.9451 15.0499 17.0207C15.0194 17.0963 14.9682 17.1618 14.9022 17.2097C14.8363 17.2577 14.7582 17.2861 14.6768 17.2917C14.5955 17.2974 14.5142 17.2801 14.4422 17.2418L10.6523 15.2491C10.4026 15.118 10.1247 15.0495 9.84268 15.0495C9.56063 15.0495 9.2828 15.118 9.03308 15.2491L5.24397 17.2418C5.17203 17.2798 5.09083 17.297 5.00963 17.2912C4.92842 17.2854 4.85047 17.257 4.78463 17.2091C4.71879 17.1612 4.66772 17.0958 4.63721 17.0204C4.6067 16.9449 4.59798 16.8624 4.61205 16.7822L5.33507 12.5647C5.38283 12.2862 5.36214 12.0004 5.27478 11.7317C5.18742 11.4631 5.03602 11.2197 4.83363 11.0226L1.76755 8.03778C1.70895 7.98118 1.66742 7.90925 1.6477 7.8302C1.62798 7.75115 1.63086 7.66816 1.656 7.59066C1.68115 7.51317 1.72756 7.44429 1.78994 7.39188C1.85232 7.33948 1.92816 7.30564 2.00883 7.29424L6.24767 6.67462C6.52692 6.63399 6.79211 6.52612 7.02042 6.36029C7.24873 6.19445 7.43332 5.97562 7.55831 5.72262L9.45327 1.88264Z" stroke="#EAB308" stroke-width="2.81378" stroke-linecap="round" stroke-linejoin="round"/>
</g>
<defs>
<clipPath id="clip0_10_2740">
<rect width="19.6964" height="19.6964" fill="white"/>
</clipPath>
</defs>
</svg>
