<svg width="15" height="15" viewBox="0 0 15 15" fill="none" xmlns="http://www.w3.org/2000/svg">
<path d="M7.01917 0.863344C7.04838 0.804318 7.09352 0.754632 7.14947 0.719894C7.20542 0.685156 7.26997 0.666748 7.33584 0.666748C7.4017 0.666748 7.46625 0.685156 7.5222 0.719894C7.57816 0.754632 7.62329 0.804318 7.6525 0.863344L9.1925 3.98268C9.29395 4.18799 9.44371 4.36562 9.62892 4.50031C9.81413 4.63501 10.0293 4.72275 10.2558 4.75601L13.6998 5.26001C13.7651 5.26947 13.8264 5.29699 13.8768 5.33948C13.9273 5.38196 13.9648 5.43771 13.9852 5.50041C14.0056 5.56312 14.008 5.63028 13.9922 5.6943C13.9764 5.75832 13.943 5.81665 13.8958 5.86268L11.4052 8.28801C11.2409 8.44808 11.118 8.64567 11.0471 8.86376C10.9761 9.08186 10.9592 9.31394 10.9978 9.54001L11.5858 12.9667C11.5974 13.0319 11.5903 13.0991 11.5655 13.1605C11.5407 13.2219 11.4991 13.2751 11.4455 13.314C11.3919 13.3529 11.3285 13.376 11.2624 13.3806C11.1963 13.3852 11.1303 13.3711 11.0718 13.34L7.99317 11.7213C7.79031 11.6148 7.56462 11.5592 7.3355 11.5592C7.10638 11.5592 6.88069 11.6148 6.67783 11.7213L3.59984 13.34C3.54139 13.371 3.47543 13.3849 3.40947 13.3802C3.34351 13.3755 3.28018 13.3524 3.2267 13.3135C3.17322 13.2746 3.13172 13.2215 3.10694 13.1602C3.08215 13.0988 3.07507 13.0318 3.0865 12.9667L3.67384 9.54068C3.71263 9.3145 3.69582 9.08228 3.62486 8.86404C3.5539 8.64581 3.43091 8.44811 3.2665 8.28801L0.775835 5.86334C0.728231 5.81737 0.694497 5.75894 0.678477 5.69473C0.662456 5.63051 0.664793 5.56309 0.685221 5.50014C0.705649 5.43719 0.743347 5.38124 0.79402 5.33867C0.844693 5.29609 0.906304 5.26861 0.971835 5.25934L4.41517 4.75601C4.64201 4.72301 4.85743 4.63538 5.04289 4.50067C5.22835 4.36596 5.3783 4.18819 5.47984 3.98268L7.01917 0.863344Z" fill="#F59F0A" stroke="#F59F0A" stroke-width="1.33333" stroke-linecap="round" stroke-linejoin="round"/>
</svg>
