<svg width="20" height="20" viewBox="0 0 20 20" fill="none" xmlns="http://www.w3.org/2000/svg">
<path d="M11.88 17.9342C11.9122 18.0143 11.9681 18.0827 12.0402 18.1302C12.1124 18.1776 12.1973 18.2019 12.2836 18.1997C12.37 18.1975 12.4536 18.1689 12.5232 18.1178C12.5928 18.0667 12.6451 17.9956 12.6731 17.9139L18.1748 1.83197C18.2019 1.75697 18.2071 1.67581 18.1897 1.59798C18.1724 1.52016 18.1332 1.44888 18.0768 1.39249C18.0205 1.33611 17.9492 1.29695 17.8714 1.27959C17.7935 1.26224 17.7124 1.26741 17.6374 1.2945L1.55546 6.79621C1.47377 6.82422 1.40261 6.87655 1.35153 6.94617C1.30045 7.01579 1.27188 7.09937 1.26967 7.18569C1.26746 7.27201 1.29171 7.35695 1.33916 7.42909C1.38661 7.50124 1.455 7.55714 1.53514 7.5893L8.24722 10.2809C8.45941 10.3659 8.65219 10.4929 8.81395 10.6544C8.97572 10.8158 9.1031 11.0084 9.18844 11.2204L11.88 17.9342Z" stroke="white" stroke-width="2.53925" stroke-linecap="round" stroke-linejoin="round"/>
</svg>
