<svg width="34" height="34" viewBox="0 0 34 34" fill="none" xmlns="http://www.w3.org/2000/svg">
<path d="M7.49872 8.49991C5.43693 10.8026 4.2826 13.7764 4.25079 16.8671C4.17243 23.9294 9.93848 29.7366 17.0008 29.7499C24.0531 29.7632 29.7508 24.0503 29.7508 16.9999C29.7508 10.0578 24.2025 4.40862 17.2996 4.24991C17.2608 4.24866 17.2221 4.25524 17.1858 4.26928C17.1496 4.28331 17.1165 4.3045 17.0886 4.33158C17.0607 4.35866 17.0386 4.39108 17.0235 4.42691C17.0084 4.46273 17.0007 4.50123 17.0008 4.5401V10.0937" stroke="#07A4FB" stroke-linecap="round" stroke-linejoin="round"/>
<path d="M15.4976 18.5027L10.2515 10.9988C10.1789 10.8948 10.1452 10.7686 10.1564 10.6423C10.1675 10.516 10.2228 10.3977 10.3124 10.308C10.4021 10.2184 10.5204 10.1631 10.6467 10.152C10.773 10.1408 10.8992 10.1745 11.0032 10.2471L18.5071 15.4932C18.9674 15.8247 19.2786 16.324 19.3736 16.8833C19.4685 17.4425 19.3395 18.0166 19.0144 18.4814C18.6893 18.9462 18.1943 19.2644 17.6364 19.367C17.0786 19.4697 16.5027 19.3486 16.0335 19.03C15.826 18.8862 15.6447 18.7079 15.4976 18.5027Z" fill="#07A4FB"/>
</svg>
