<svg width="27" height="24" viewBox="0 0 27 24" fill="none" xmlns="http://www.w3.org/2000/svg">
<path d="M3.75 3.28018H22.5C22.719 3.28012 22.9378 3.29401 23.1551 3.32178C23.0814 2.80485 22.9039 2.30818 22.6331 1.86173C22.3623 1.41528 22.0039 1.02829 21.5796 0.724086C21.1552 0.419883 20.6736 0.204773 20.1638 0.0917249C19.6541 -0.0213236 19.1267 -0.0299691 18.6135 0.0663096L3.19336 2.69893H3.17578C2.20786 2.88402 1.34711 3.43166 0.769336 4.22998C1.6398 3.61084 2.6818 3.2788 3.75 3.28018ZM22.5 4.68643H3.75C2.75577 4.68751 1.80257 5.08295 1.09955 5.78597C0.396522 6.489 0.00108566 7.4422 0 8.43643V19.6864C0.00108566 20.6807 0.396522 21.6339 1.09955 22.3369C1.80257 23.0399 2.75577 23.4353 3.75 23.4364H22.5C23.4942 23.4353 24.4474 23.0399 25.1505 22.3369C25.8535 21.6339 26.2489 20.6807 26.25 19.6864V8.43643C26.2489 7.4422 25.8535 6.489 25.1505 5.78597C24.4474 5.08295 23.4942 4.68751 22.5 4.68643ZM19.7168 15.9364C19.346 15.9364 18.9834 15.8265 18.6751 15.6204C18.3668 15.4144 18.1264 15.1216 17.9845 14.779C17.8426 14.4363 17.8055 14.0593 17.8778 13.6956C17.9502 13.3319 18.1287 12.9978 18.391 12.7356C18.6532 12.4734 18.9873 12.2948 19.351 12.2225C19.7147 12.1501 20.0917 12.1872 20.4343 12.3292C20.7769 12.4711 21.0698 12.7114 21.2758 13.0197C21.4818 13.3281 21.5918 13.6906 21.5918 14.0614C21.5918 14.5587 21.3943 15.0356 21.0426 15.3872C20.691 15.7389 20.2141 15.9364 19.7168 15.9364Z" fill="white"/>
</svg>
